<svg xmlns="http://www.w3.org/2000/svg" viewBox="0 0 496.92 368.38"><defs><style>.cls-1{fill:#bdd164;}</style></defs><g id="Layer_2" data-name="Layer 2"><g id="Layer_1-2" data-name="Layer 1"><path class="cls-1" d="M346.28,149c3.13,3,6.11,7,9.17,10.21,45.42,66.88,92.75,132.73,137.14,200.32,1,1.53,3.77,5.1,4.13,6.56.18.69.46.89-.3,1.44l-84,.26c-20.69-1.31-34.78-9.8-47.11-25.89-25.87-33.75-47.54-72.34-73.36-106.33-8.64-10.16-17.66-14.62-31.12-15.48-32-2-66.2,1.83-98.32.05-59.69-3.3-62.17-88.69-2.71-96,40.2.2,81-2.41,121.25-.66,24.73,1.08,47.24,8.07,65.19,25.49M197.72,172a28.25,28.25,0,1,0-28.25,28.26A28.25,28.25,0,0,0,197.72,172"/><path class="cls-1" d="M297.63,106.09c-.52-.73,3.49-5.64,4.26-6.67C321,73.79,341.78,45.4,362.21,21,373,8.18,384,1.54,401.2.51c27.32-1.63,56.23,1.29,83.72,0l1.93.88L373.44,151.32h-1.7c-17.92-23.81-44.23-41.12-74.11-45.23"/><path class="cls-1" d="M.94.61C19.35.88,38.7-1.59,56,6.05,78.46,16,89.28,39.64,91,63.12l0,190.93c1.9,13.74,10.15,16.93,22.75,17.69,14.26.86,48.61,1.57,61.2-2.8,14.15-4.91,16.92-17.26,26.44-25.77a9.11,9.11,0,0,1,3.55-2.07c18.43.48,38.22-1.46,56.51-.27,8.07.53,12.36,2.16,17.64,8.19,2.65,3,14.7,19.74,15.47,22.7,1,3.81-.73,5.18-2.64,8.06-26,29.08-45.67,82.05-89,87.35-35.51-.16-71.69,2.36-107.2.65C45.59,365.39,3.51,329.48,0,278.23L.27,1.06ZM230.33,315.06a28.05,28.05,0,1,0-28.05,28.05,28,28,0,0,0,28.05-28.05"/></g></g></svg>